# xmcd
#
# Track frame offsets:
#	150
#	13815
#	27890
#	42372
#	56843
#	69355
#	85042
#	97494
#	111451
#	127393
#	141783
#	157338
#	169416
#	182292
#	197829
#	211105
#	223063
#	235848
#
# Disc length: 3333 seconds
#
# Revision: 0
# Processed by: cddbd v1.5PL3 Copyright (c) Steve Scherf et al.
# Submitted via: dBpowerAMP V4.0
#
DISCID=150d0312
DTITLE=Tampa Red - The Essential Tampa Red [CD1]
DYEAR=1900
DGENRE=Blues
TTITLE0=Grievin' and Worrin'
TTITLE1=Kingfish Blues
TTITLE2=Mama Don't Allow No Easy Riders Here (with The Hokum Jug Band)
TTITLE3=Stockyard Fire
TTITLE4=Stormy Sea Blues
TTITLE5=It's Heated (with Frankie Jaxon)
TTITLE6=Mean Mistreater Blues
TTITLE7=Delta Woman Blues
TTITLE8=My Daddy Rocks Me (With One Steady Roll) (with The Hokum Jug Band)
TTITLE9=Boogie Woogie Dance
TTITLE10=Keep On Dealin' (Play Your Hand)
TTITLE11=Mean Old Tom Cat
TTITLE12=Don't Deal With The Devil
TTITLE13=Coffee Grindin' Blues (with Lucille Bogan)
TTITLE14=Denver Blues
TTITLE15=Uncle Bud (Dog Gone Him)
TTITLE16=You Can't Get That Stuff No More
TTITLE17=Chicago Moan
EXTD=
EXTT0=
EXTT1=
EXTT2=
EXTT3=
EXTT4=
EXTT5=
EXTT6=
EXTT7=
EXTT8=
EXTT9=
EXTT10=
EXTT11=
EXTT12=
EXTT13=
EXTT14=
EXTT15=
EXTT16=
EXTT17=
PLAYORDER=
